<?xml version="1.0" encoding="UTF-8" standalone="no"?>
<!-- Created with Inkscape (http://www.inkscape.org/) -->

<svg
   xmlns:dc="http://purl.org/dc/elements/1.1/"
   xmlns:cc="http://creativecommons.org/ns#"
   xmlns:rdf="http://www.w3.org/1999/02/22-rdf-syntax-ns#"
   xmlns:svg="http://www.w3.org/2000/svg"
   xmlns="http://www.w3.org/2000/svg"
   xmlns:sodipodi="http://sodipodi.sourceforge.net/DTD/sodipodi-0.dtd"
   xmlns:inkscape="http://www.inkscape.org/namespaces/inkscape"
   id="svg2"
   version="1.1"
   inkscape:version="0.48.4 r9939"
   width="200"
   height="200"
   xml:space="preserve"
   sodipodi:docname="highlight_marker.svg"
   inkscape:export-filename="/home/brock/ClimateProxiesFinder_1.4_dc.leaflet/marker_Ice.png"
   inkscape:export-xdpi="14.439217"
   inkscape:export-ydpi="14.439217"><metadata
     id="metadata8"><rdf:RDF><cc:Work
         rdf:about=""><dc:format>image/svg+xml</dc:format><dc:type
           rdf:resource="http://purl.org/dc/dcmitype/StillImage" /><dc:title /></cc:Work></rdf:RDF></metadata><defs
     id="defs6"><clipPath
       clipPathUnits="userSpaceOnUse"
       id="clipPath16"><path
         d="M 0,270 268,270 268,0 0,0 0,270 z"
         id="path18"
         inkscape:connector-curvature="0" /></clipPath><clipPath
       clipPathUnits="userSpaceOnUse"
       id="clipPath32"><path
         d="M 0,270 268,270 268,0 0,0 0,270 z"
         id="path34"
         inkscape:connector-curvature="0" /></clipPath><clipPath
       clipPathUnits="userSpaceOnUse"
       id="clipPath44"><path
         d="M 0,270 268,270 268,0 0,0 0,270 z"
         id="path46"
         inkscape:connector-curvature="0" /></clipPath></defs><sodipodi:namedview
     pagecolor="#ffffff"
     bordercolor="#666666"
     borderopacity="1"
     objecttolerance="10"
     gridtolerance="10"
     guidetolerance="10"
     inkscape:pageopacity="0"
     inkscape:pageshadow="2"
     inkscape:window-width="1369"
     inkscape:window-height="1054"
     id="namedview4"
     showgrid="true"
     inkscape:zoom="2.8284271"
     inkscape:cx="135.99442"
     inkscape:cy="126.41485"
     inkscape:window-x="0"
     inkscape:window-y="0"
     inkscape:window-maximized="0"
     inkscape:current-layer="g14"
     fit-margin-top="0"
     fit-margin-left="0"
     fit-margin-right="0"
     fit-margin-bottom="0"
     inkscape:snap-nodes="false"><inkscape:grid
       type="xygrid"
       id="grid2998"
       empspacing="10"
       visible="true"
       enabled="true"
       snapvisiblegridlinesonly="true" /></sodipodi:namedview><g
     id="g10"
     inkscape:groupmode="layer"
     inkscape:label="google-marker"
     transform="matrix(1.25,0,0,-1.25,-121.04875,281.04138)"><g
       id="g12"
       transform="matrix(1.1067885,0,0,1.1067885,29.909078,-3.6595629)"
       style="fill:#ff0000;fill-opacity:1"><g
         id="g14"
         clip-path="url(#clipPath16)"
         style="fill:#ff0000;fill-opacity:1;stroke:#000000;stroke-opacity:1"><g
           id="g20"
           transform="matrix(0.99700265,0,0,0.99700265,192.24253,65.009251)"
           style="fill:#ff0000;fill-opacity:1;stroke:#0645ad;stroke-width:7.37735747999999969;stroke-miterlimit:4;stroke-opacity:1;stroke-dasharray:none"><path
             d="m -59.211895,0 c 0.985,19.151 11.538,50.256 26.833,69.833 8.333,10.667 12.167,21.063 12.167,27.37 0,21.907 -17.551,39.667 -39.2,39.667 l -10e-4,0 c -21.65,0 -39.2,-17.76 -39.2,-39.667 0,-6.307 3.834,-16.703 12.167,-27.37 15.295,-19.577 25.847,-50.682 26.833,-69.833 l 0.401,0 z"
             style="fill:#ff0000;fill-opacity:1;fill-rule:nonzero;stroke:#0645ad;stroke-width:7.37735747999999969;stroke-miterlimit:4;stroke-opacity:1;stroke-dasharray:none"
             id="path22"
             inkscape:connector-curvature="0" /></g></g></g><g
       id="g28"
       transform="matrix(0.8884951,0,0,0.8884951,54.874641,29.422766)"><g
         id="g30"
         clip-path="url(#clipPath32)"><g
           id="g36"
           transform="translate(153.9639,165.0005)"><path
             d="m 0,0 c 0,-9.182 -7.443,-16.625 -16.625,-16.625 -9.182,0 -16.625,7.443 -16.625,16.625 0,9.182 7.443,16.625 16.625,16.625 C -7.443,16.625 0,9.182 0,0"
             style="fill:#000000;fill-opacity:1;fill-rule:nonzero;stroke:none"
             id="path38"
             inkscape:connector-curvature="0" /></g></g></g></g></svg>